<?xml version="1.0" encoding="us-ascii" standalone="no"?><svg xmlns="http://www.w3.org/2000/svg" xmlns:xlink="http://www.w3.org/1999/xlink" contentStyleType="text/css" height="1418px" preserveAspectRatio="none" style="width:2376px;height:1418px;background:#FFFFFF;" version="1.1" viewBox="0 0 2376 1418" width="2376px" zoomAndPan="magnify"><defs/><g><text fill="#000000" font-family="sans-serif" font-size="14" font-weight="bold" lengthAdjust="spacing" textLength="326" x="1018" y="24.9659">UninaSwap - Component Architecture Diagram</text><!--cluster ClientDomain--><g id="cluster_ClientDomain"><path d="M45.5,46.6699 L159.5,46.6699 A3.75,3.75 0 0 1 162,49.1699 L169,71.7378 L775.5,71.7378 A2.5,2.5 0 0 1 778,74.2378 L778,974.1699 A2.5,2.5 0 0 1 775.5,976.6699 L45.5,976.6699 A2.5,2.5 0 0 1 43,974.1699 L43,49.1699 A2.5,2.5 0 0 1 45.5,46.6699 " fill="#E8F4FD" style="stroke:#666666;stroke-width:1.0;"/><line style="stroke:#666666;stroke-width:1.0;" x1="43" x2="169" y1="71.7378" y2="71.7378"/><text fill="#000000" font-family="sans-serif" font-size="14" font-weight="bold" lengthAdjust="spacing" textLength="113" x="47" y="63.6358">CLIENT DOMAIN</text></g><!--cluster SharedLayer--><g id="cluster_SharedLayer"><path d="M851.5,841.6699 L956.5,841.6699 A3.75,3.75 0 0 1 959,844.1699 L966,866.7378 L1605.5,866.7378 A2.5,2.5 0 0 1 1608,869.2378 L1608,1188.6699 A2.5,2.5 0 0 1 1605.5,1191.1699 L851.5,1191.1699 A2.5,2.5 0 0 1 849,1188.6699 L849,844.1699 A2.5,2.5 0 0 1 851.5,841.6699 " fill="#FFF2E8" style="stroke:#666666;stroke-width:1.0;"/><line style="stroke:#666666;stroke-width:1.0;" x1="849" x2="966" y1="866.7378" y2="866.7378"/><text fill="#000000" font-family="sans-serif" font-size="14" font-weight="bold" lengthAdjust="spacing" textLength="104" x="853" y="858.6358">SHARED LAYER</text></g><!--cluster ServerDomain--><g id="cluster_ServerDomain"><path d="M1744.5,426.6699 L1860.5,426.6699 A3.75,3.75 0 0 1 1863,429.1699 L1870,451.7378 L2366.5,451.7378 A2.5,2.5 0 0 1 2369,454.2378 L2369,1188.6699 A2.5,2.5 0 0 1 2366.5,1191.1699 L1744.5,1191.1699 A2.5,2.5 0 0 1 1742,1188.6699 L1742,429.1699 A2.5,2.5 0 0 1 1744.5,426.6699 " fill="#F0F8FF" style="stroke:#666666;stroke-width:1.0;"/><line style="stroke:#666666;stroke-width:1.0;" x1="1742" x2="1870" y1="451.7378" y2="451.7378"/><text fill="#000000" font-family="sans-serif" font-size="14" font-weight="bold" lengthAdjust="spacing" textLength="115" x="1746" y="443.6358">SERVER DOMAIN</text></g><!--entity FXML--><g id="elem_FXML"><rect fill="#FFFFFF" height="46.3441" rx="2.5" ry="2.5" style="stroke:#333333;stroke-width:2.0;" width="105" x="232.5" y="111.1699"/><rect fill="#FFFFFF" height="10" style="stroke:#333333;stroke-width:2.0;" width="15" x="317.5" y="116.1699"/><rect fill="#FFFFFF" height="2" style="stroke:#333333;stroke-width:2.0;" width="4" x="315.5" y="118.1699"/><rect fill="#FFFFFF" height="2" style="stroke:#333333;stroke-width:2.0;" width="4" x="315.5" y="122.1699"/><text fill="#000000" font-family="sans-serif" font-size="12" lengthAdjust="spacing" textLength="65" x="247.5" y="143.998">FXML Views</text></g><!--entity Controllers--><g id="elem_Controllers"><rect fill="#FFFFFF" height="46.3441" rx="2.5" ry="2.5" style="stroke:#333333;stroke-width:2.0;" width="102" x="234" y="289.1699"/><rect fill="#FFFFFF" height="10" style="stroke:#333333;stroke-width:2.0;" width="15" x="316" y="294.1699"/><rect fill="#FFFFFF" height="2" style="stroke:#333333;stroke-width:2.0;" width="4" x="314" y="296.1699"/><rect fill="#FFFFFF" height="2" style="stroke:#333333;stroke-width:2.0;" width="4" x="314" y="300.1699"/><text fill="#000000" font-family="sans-serif" font-size="12" lengthAdjust="spacing" textLength="62" x="249" y="321.998">Controllers</text></g><!--entity ClientServices--><g id="elem_ClientServices"><rect fill="#FFFFFF" height="46.3441" rx="2.5" ry="2.5" style="stroke:#333333;stroke-width:2.0;" width="122" x="462" y="686.6699"/><rect fill="#FFFFFF" height="10" style="stroke:#333333;stroke-width:2.0;" width="15" x="564" y="691.6699"/><rect fill="#FFFFFF" height="2" style="stroke:#333333;stroke-width:2.0;" width="4" x="562" y="693.6699"/><rect fill="#FFFFFF" height="2" style="stroke:#333333;stroke-width:2.0;" width="4" x="562" y="697.6699"/><text fill="#000000" font-family="sans-serif" font-size="12" lengthAdjust="spacing" textLength="82" x="477" y="719.498">Client Services</text></g><!--entity ViewModels--><g id="elem_ViewModels"><rect fill="#FFFFFF" height="46.3441" rx="2.5" ry="2.5" style="stroke:#333333;stroke-width:2.0;" width="107" x="313.5" y="491.1699"/><rect fill="#FFFFFF" height="10" style="stroke:#333333;stroke-width:2.0;" width="15" x="400.5" y="496.1699"/><rect fill="#FFFFFF" height="2" style="stroke:#333333;stroke-width:2.0;" width="4" x="398.5" y="498.1699"/><rect fill="#FFFFFF" height="2" style="stroke:#333333;stroke-width:2.0;" width="4" x="398.5" y="502.1699"/><text fill="#000000" font-family="sans-serif" font-size="12" lengthAdjust="spacing" textLength="67" x="328.5" y="523.998">ViewModels</text></g><!--entity WSClient--><g id="elem_WSClient"><rect fill="#FFFFFF" height="46.3441" rx="2.5" ry="2.5" style="stroke:#333333;stroke-width:2.0;" width="137" x="439.5" y="914.6699"/><rect fill="#FFFFFF" height="10" style="stroke:#333333;stroke-width:2.0;" width="15" x="556.5" y="919.6699"/><rect fill="#FFFFFF" height="2" style="stroke:#333333;stroke-width:2.0;" width="4" x="554.5" y="921.6699"/><rect fill="#FFFFFF" height="2" style="stroke:#333333;stroke-width:2.0;" width="4" x="554.5" y="925.6699"/><text fill="#000000" font-family="sans-serif" font-size="12" lengthAdjust="spacing" textLength="97" x="454.5" y="947.498">WebSocket Client</text></g><!--entity NavService--><g id="elem_NavService"><rect fill="#FFFFFF" height="46.3441" rx="2.5" ry="2.5" style="stroke:#333333;stroke-width:2.0;" width="144" x="618" y="491.1699"/><rect fill="#FFFFFF" height="10" style="stroke:#333333;stroke-width:2.0;" width="15" x="742" y="496.1699"/><rect fill="#FFFFFF" height="2" style="stroke:#333333;stroke-width:2.0;" width="4" x="740" y="498.1699"/><rect fill="#FFFFFF" height="2" style="stroke:#333333;stroke-width:2.0;" width="4" x="740" y="502.1699"/><text fill="#000000" font-family="sans-serif" font-size="12" lengthAdjust="spacing" textLength="104" x="633" y="523.998">Navigation Service</text></g><!--entity ImgService--><g id="elem_ImgService"><rect fill="#FFFFFF" height="46.3441" rx="2.5" ry="2.5" style="stroke:#333333;stroke-width:2.0;" width="120" x="158" y="491.1699"/><rect fill="#FFFFFF" height="10" style="stroke:#333333;stroke-width:2.0;" width="15" x="258" y="496.1699"/><rect fill="#FFFFFF" height="2" style="stroke:#333333;stroke-width:2.0;" width="4" x="256" y="498.1699"/><rect fill="#FFFFFF" height="2" style="stroke:#333333;stroke-width:2.0;" width="4" x="256" y="502.1699"/><text fill="#000000" font-family="sans-serif" font-size="12" lengthAdjust="spacing" textLength="80" x="173" y="523.998">Image Service</text></g><g id="elem_GMN10"><path d="M373,84.6699 L373,130.1699 L337.51,134.1699 L373,138.1699 L373,183.2 A0,0 0 0 0 373,183.2 L531,183.2 A0,0 0 0 0 531,183.2 L531,94.6699 L521,84.6699 L373,84.6699 A0,0 0 0 0 373,84.6699 " fill="#FEFFDD" style="stroke:#181818;stroke-width:0.5;"/><path d="M521,84.6699 L521,94.6699 L531,94.6699 L521,84.6699 " fill="#FEFFDD" style="stroke:#181818;stroke-width:0.5;"/><text fill="#000000" font-family="sans-serif" font-size="13" lengthAdjust="spacing" textLength="95" x="379" y="103.5669">ProfileView.fxml</text><text fill="#000000" font-family="sans-serif" font-size="13" lengthAdjust="spacing" textLength="93" x="379" y="121.2729">OffersView.fxml</text><text fill="#000000" font-family="sans-serif" font-size="13" lengthAdjust="spacing" textLength="137" x="379" y="138.9789">ListingDetailsView.fxml</text><text fill="#000000" font-family="sans-serif" font-size="13" lengthAdjust="spacing" textLength="123" x="379" y="156.685">ItemDialogView.fxml</text><text fill="#000000" font-family="sans-serif" font-size="13" lengthAdjust="spacing" textLength="21" x="379" y="174.391">etc.</text></g><g id="elem_GMN13"><path d="M371.5,262.6699 L371.5,308.1699 L336.21,312.1699 L371.5,316.1699 L371.5,361.2 A0,0 0 0 0 371.5,361.2 L532.5,361.2 A0,0 0 0 0 532.5,361.2 L532.5,272.6699 L522.5,262.6699 L371.5,262.6699 A0,0 0 0 0 371.5,262.6699 " fill="#FEFFDD" style="stroke:#181818;stroke-width:0.5;"/><path d="M522.5,262.6699 L522.5,272.6699 L532.5,272.6699 L522.5,262.6699 " fill="#FEFFDD" style="stroke:#181818;stroke-width:0.5;"/><text fill="#000000" font-family="sans-serif" font-size="13" lengthAdjust="spacing" textLength="98" x="377.5" y="281.5669">ProfileController</text><text fill="#000000" font-family="sans-serif" font-size="13" lengthAdjust="spacing" textLength="96" x="377.5" y="299.2729">OffersController</text><text fill="#000000" font-family="sans-serif" font-size="13" lengthAdjust="spacing" textLength="140" x="377.5" y="316.9789">ListingDetailsController</text><text fill="#000000" font-family="sans-serif" font-size="13" lengthAdjust="spacing" textLength="126" x="377.5" y="334.685">ItemDialogController</text><text fill="#000000" font-family="sans-serif" font-size="13" lengthAdjust="spacing" textLength="21" x="377.5" y="352.391">etc.</text></g><g id="elem_GMN16"><path d="M619.5,642.6699 L619.5,705.6699 L584.12,709.6699 L619.5,713.6699 L619.5,776.612 A0,0 0 0 0 619.5,776.612 L752.5,776.612 A0,0 0 0 0 752.5,776.612 L752.5,652.6699 L742.5,642.6699 L619.5,642.6699 A0,0 0 0 0 619.5,642.6699 " fill="#FEFFDD" style="stroke:#181818;stroke-width:0.5;"/><path d="M742.5,642.6699 L742.5,652.6699 L752.5,652.6699 L742.5,642.6699 " fill="#FEFFDD" style="stroke:#181818;stroke-width:0.5;"/><text fill="#000000" font-family="sans-serif" font-size="13" lengthAdjust="spacing" textLength="82" x="625.5" y="661.5669">ListingService</text><text fill="#000000" font-family="sans-serif" font-size="13" lengthAdjust="spacing" textLength="72" x="625.5" y="679.2729">OfferService</text><text fill="#000000" font-family="sans-serif" font-size="13" lengthAdjust="spacing" textLength="70" x="625.5" y="696.9789">ItemService</text><text fill="#000000" font-family="sans-serif" font-size="13" lengthAdjust="spacing" textLength="112" x="625.5" y="714.685">NotificationService</text><text fill="#000000" font-family="sans-serif" font-size="13" lengthAdjust="spacing" textLength="80" x="625.5" y="732.391">ProfileService</text><text fill="#000000" font-family="sans-serif" font-size="13" lengthAdjust="spacing" textLength="97" x="625.5" y="750.097">FavoritesService</text><text fill="#000000" font-family="sans-serif" font-size="13" lengthAdjust="spacing" textLength="82" x="625.5" y="767.803">SearchService</text></g><g id="elem_GMN19"><path d="M455.5,464.6699 L455.5,510.1699 L420.73,514.1699 L455.5,518.1699 L455.5,563.2 A0,0 0 0 0 455.5,563.2 L582.5,563.2 A0,0 0 0 0 582.5,563.2 L582.5,474.6699 L572.5,464.6699 L455.5,464.6699 A0,0 0 0 0 455.5,464.6699 " fill="#FEFFDD" style="stroke:#181818;stroke-width:0.5;"/><path d="M572.5,464.6699 L572.5,474.6699 L582.5,474.6699 L572.5,464.6699 " fill="#FEFFDD" style="stroke:#181818;stroke-width:0.5;"/><text fill="#000000" font-family="sans-serif" font-size="13" lengthAdjust="spacing" textLength="94" x="461.5" y="483.5669">UserViewModel</text><text fill="#000000" font-family="sans-serif" font-size="13" lengthAdjust="spacing" textLength="106" x="461.5" y="501.2729">ListingViewModel</text><text fill="#000000" font-family="sans-serif" font-size="13" lengthAdjust="spacing" textLength="96" x="461.5" y="518.9789">OfferViewModel</text><text fill="#000000" font-family="sans-serif" font-size="13" lengthAdjust="spacing" textLength="94" x="461.5" y="536.685">ItemViewModel</text><text fill="#000000" font-family="sans-serif" font-size="13" lengthAdjust="spacing" textLength="21" x="461.5" y="554.391">etc.</text></g><!--entity DTOs--><g id="elem_DTOs"><rect fill="#FFFFFF" height="46.3441" rx="2.5" ry="2.5" style="stroke:#333333;stroke-width:2.0;" width="71" x="902.5" y="1102.6699"/><rect fill="#FFFFFF" height="10" style="stroke:#333333;stroke-width:2.0;" width="15" x="953.5" y="1107.6699"/><rect fill="#FFFFFF" height="2" style="stroke:#333333;stroke-width:2.0;" width="4" x="951.5" y="1109.6699"/><rect fill="#FFFFFF" height="2" style="stroke:#333333;stroke-width:2.0;" width="4" x="951.5" y="1113.6699"/><text fill="#000000" font-family="sans-serif" font-size="12" lengthAdjust="spacing" textLength="31" x="917.5" y="1135.498">DTOs</text></g><!--entity Enums--><g id="elem_Enums"><rect fill="#FFFFFF" height="46.3441" rx="2.5" ry="2.5" style="stroke:#333333;stroke-width:2.0;" width="78" x="1046" y="914.6699"/><rect fill="#FFFFFF" height="10" style="stroke:#333333;stroke-width:2.0;" width="15" x="1104" y="919.6699"/><rect fill="#FFFFFF" height="2" style="stroke:#333333;stroke-width:2.0;" width="4" x="1102" y="921.6699"/><rect fill="#FFFFFF" height="2" style="stroke:#333333;stroke-width:2.0;" width="4" x="1102" y="925.6699"/><text fill="#000000" font-family="sans-serif" font-size="12" lengthAdjust="spacing" textLength="38" x="1061" y="947.498">Enums</text></g><!--entity Messages--><g id="elem_Messages"><rect fill="#FFFFFF" height="46.3441" rx="2.5" ry="2.5" style="stroke:#333333;stroke-width:2.0;" width="97" x="1302.5" y="914.6699"/><rect fill="#FFFFFF" height="10" style="stroke:#333333;stroke-width:2.0;" width="15" x="1379.5" y="919.6699"/><rect fill="#FFFFFF" height="2" style="stroke:#333333;stroke-width:2.0;" width="4" x="1377.5" y="921.6699"/><rect fill="#FFFFFF" height="2" style="stroke:#333333;stroke-width:2.0;" width="4" x="1377.5" y="925.6699"/><text fill="#000000" font-family="sans-serif" font-size="12" lengthAdjust="spacing" textLength="57" x="1317.5" y="947.498">Messages</text></g><!--entity VMMapper--><g id="elem_VMMapper"><rect fill="#FFFFFF" height="46.3441" rx="2.5" ry="2.5" style="stroke:#333333;stroke-width:2.0;" width="145" x="865.5" y="914.6699"/><rect fill="#FFFFFF" height="10" style="stroke:#333333;stroke-width:2.0;" width="15" x="990.5" y="919.6699"/><rect fill="#FFFFFF" height="2" style="stroke:#333333;stroke-width:2.0;" width="4" x="988.5" y="921.6699"/><rect fill="#FFFFFF" height="2" style="stroke:#333333;stroke-width:2.0;" width="4" x="988.5" y="925.6699"/><text fill="#000000" font-family="sans-serif" font-size="12" lengthAdjust="spacing" textLength="105" x="880.5" y="947.498">ViewModelMapper</text></g><g id="elem_GMN27"><path d="M1008.5,1076.1699 L1008.5,1121.6699 L973.62,1125.6699 L1008.5,1129.6699 L1008.5,1174.7 A0,0 0 0 0 1008.5,1174.7 L1095.5,1174.7 A0,0 0 0 0 1095.5,1174.7 L1095.5,1086.1699 L1085.5,1076.1699 L1008.5,1076.1699 A0,0 0 0 0 1008.5,1076.1699 " fill="#FEFFDD" style="stroke:#181818;stroke-width:0.5;"/><path d="M1085.5,1076.1699 L1085.5,1086.1699 L1095.5,1086.1699 L1085.5,1076.1699 " fill="#FEFFDD" style="stroke:#181818;stroke-width:0.5;"/><text fill="#000000" font-family="sans-serif" font-size="13" lengthAdjust="spacing" textLength="54" x="1014.5" y="1095.0669">UserDTO</text><text fill="#000000" font-family="sans-serif" font-size="13" lengthAdjust="spacing" textLength="66" x="1014.5" y="1112.7729">ListingDTO</text><text fill="#000000" font-family="sans-serif" font-size="13" lengthAdjust="spacing" textLength="56" x="1014.5" y="1130.4789">OfferDTO</text><text fill="#000000" font-family="sans-serif" font-size="13" lengthAdjust="spacing" textLength="54" x="1014.5" y="1148.185">ItemDTO</text><text fill="#000000" font-family="sans-serif" font-size="13" lengthAdjust="spacing" textLength="21" x="1014.5" y="1165.891">etc.</text></g><g id="elem_GMN30"><path d="M1159,879.6699 L1159,933.6699 L1124.5,937.6699 L1159,941.6699 L1159,995.906 A0,0 0 0 0 1159,995.906 L1267,995.906 A0,0 0 0 0 1267,995.906 L1267,889.6699 L1257,879.6699 L1159,879.6699 A0,0 0 0 0 1159,879.6699 " fill="#FEFFDD" style="stroke:#181818;stroke-width:0.5;"/><path d="M1257,879.6699 L1257,889.6699 L1267,889.6699 L1257,879.6699 " fill="#FEFFDD" style="stroke:#181818;stroke-width:0.5;"/><text fill="#000000" font-family="sans-serif" font-size="13" lengthAdjust="spacing" textLength="78" x="1165" y="898.5669">ListingStatus</text><text fill="#000000" font-family="sans-serif" font-size="13" lengthAdjust="spacing" textLength="68" x="1165" y="916.2729">OfferStatus</text><text fill="#000000" font-family="sans-serif" font-size="13" lengthAdjust="spacing" textLength="54" x="1165" y="933.9789">Currency</text><text fill="#000000" font-family="sans-serif" font-size="13" lengthAdjust="spacing" textLength="55" x="1165" y="951.685">Category</text><text fill="#000000" font-family="sans-serif" font-size="13" lengthAdjust="spacing" textLength="87" x="1165" y="969.391">ItemCondition</text><text fill="#000000" font-family="sans-serif" font-size="13" lengthAdjust="spacing" textLength="21" x="1165" y="987.097">etc.</text></g><g id="elem_GMN33"><path d="M1434.5,897.1699 L1434.5,933.6699 L1399.73,937.6699 L1434.5,941.6699 L1434.5,977.994 A0,0 0 0 0 1434.5,977.994 L1591.5,977.994 A0,0 0 0 0 1591.5,977.994 L1591.5,907.1699 L1581.5,897.1699 L1434.5,897.1699 A0,0 0 0 0 1434.5,897.1699 " fill="#FEFFDD" style="stroke:#181818;stroke-width:0.5;"/><path d="M1581.5,897.1699 L1581.5,907.1699 L1591.5,907.1699 L1581.5,897.1699 " fill="#FEFFDD" style="stroke:#181818;stroke-width:0.5;"/><text fill="#000000" font-family="sans-serif" font-size="13" lengthAdjust="spacing" textLength="136" x="1440.5" y="916.0669">ProfileUpdateMessage</text><text fill="#000000" font-family="sans-serif" font-size="13" lengthAdjust="spacing" textLength="93" x="1440.5" y="933.7729">ListingMessage</text><text fill="#000000" font-family="sans-serif" font-size="13" lengthAdjust="spacing" textLength="83" x="1440.5" y="951.4789">OfferMessage</text><text fill="#000000" font-family="sans-serif" font-size="13" lengthAdjust="spacing" textLength="21" x="1440.5" y="969.185">etc.</text></g><!--entity WSHandlers--><g id="elem_WSHandlers"><rect fill="#FFFFFF" height="46.3441" rx="2.5" ry="2.5" style="stroke:#333333;stroke-width:2.0;" width="156" x="1758" y="491.1699"/><rect fill="#FFFFFF" height="10" style="stroke:#333333;stroke-width:2.0;" width="15" x="1894" y="496.1699"/><rect fill="#FFFFFF" height="2" style="stroke:#333333;stroke-width:2.0;" width="4" x="1892" y="498.1699"/><rect fill="#FFFFFF" height="2" style="stroke:#333333;stroke-width:2.0;" width="4" x="1892" y="502.1699"/><text fill="#000000" font-family="sans-serif" font-size="12" lengthAdjust="spacing" textLength="116" x="1773" y="523.998">WebSocket Handlers</text></g><!--entity ServerServices--><g id="elem_ServerServices"><rect fill="#FFFFFF" height="46.3441" rx="2.5" ry="2.5" style="stroke:#333333;stroke-width:2.0;" width="127" x="1765.5" y="686.6699"/><rect fill="#FFFFFF" height="10" style="stroke:#333333;stroke-width:2.0;" width="15" x="1872.5" y="691.6699"/><rect fill="#FFFFFF" height="2" style="stroke:#333333;stroke-width:2.0;" width="4" x="1870.5" y="693.6699"/><rect fill="#FFFFFF" height="2" style="stroke:#333333;stroke-width:2.0;" width="4" x="1870.5" y="697.6699"/><text fill="#000000" font-family="sans-serif" font-size="12" lengthAdjust="spacing" textLength="87" x="1780.5" y="719.498">Server Services</text></g><!--entity Mappers--><g id="elem_Mappers"><rect fill="#FFFFFF" height="46.3441" rx="2.5" ry="2.5" style="stroke:#333333;stroke-width:2.0;" width="90" x="1758" y="914.6699"/><rect fill="#FFFFFF" height="10" style="stroke:#333333;stroke-width:2.0;" width="15" x="1828" y="919.6699"/><rect fill="#FFFFFF" height="2" style="stroke:#333333;stroke-width:2.0;" width="4" x="1826" y="921.6699"/><rect fill="#FFFFFF" height="2" style="stroke:#333333;stroke-width:2.0;" width="4" x="1826" y="925.6699"/><text fill="#000000" font-family="sans-serif" font-size="12" lengthAdjust="spacing" textLength="50" x="1773" y="947.498">Mappers</text></g><!--entity Entities--><g id="elem_Entities"><rect fill="#FFFFFF" height="46.3441" rx="2.5" ry="2.5" style="stroke:#333333;stroke-width:2.0;" width="102" x="1854" y="1102.6699"/><rect fill="#FFFFFF" height="10" style="stroke:#333333;stroke-width:2.0;" width="15" x="1936" y="1107.6699"/><rect fill="#FFFFFF" height="2" style="stroke:#333333;stroke-width:2.0;" width="4" x="1934" y="1109.6699"/><rect fill="#FFFFFF" height="2" style="stroke:#333333;stroke-width:2.0;" width="4" x="1934" y="1113.6699"/><text fill="#000000" font-family="sans-serif" font-size="12" lengthAdjust="spacing" textLength="62" x="1869" y="1135.498">JPA Entities</text></g><!--entity Repositories--><g id="elem_Repositories"><rect fill="#FFFFFF" height="46.3441" rx="2.5" ry="2.5" style="stroke:#333333;stroke-width:2.0;" width="109" x="2082.5" y="914.6699"/><rect fill="#FFFFFF" height="10" style="stroke:#333333;stroke-width:2.0;" width="15" x="2171.5" y="919.6699"/><rect fill="#FFFFFF" height="2" style="stroke:#333333;stroke-width:2.0;" width="4" x="2169.5" y="921.6699"/><rect fill="#FFFFFF" height="2" style="stroke:#333333;stroke-width:2.0;" width="4" x="2169.5" y="925.6699"/><text fill="#000000" font-family="sans-serif" font-size="12" lengthAdjust="spacing" textLength="69" x="2097.5" y="947.498">Repositories</text></g><g id="elem_GMN42"><path d="M1949,464.6699 L1949,510.1699 L1914.12,514.1699 L1949,518.1699 L1949,563.2 A0,0 0 0 0 1949,563.2 L2125,563.2 A0,0 0 0 0 2125,563.2 L2125,474.6699 L2115,464.6699 L1949,464.6699 A0,0 0 0 0 1949,464.6699 " fill="#FEFFDD" style="stroke:#181818;stroke-width:0.5;"/><path d="M2115,464.6699 L2115,474.6699 L2125,474.6699 L2115,464.6699 " fill="#FEFFDD" style="stroke:#181818;stroke-width:0.5;"/><text fill="#000000" font-family="sans-serif" font-size="13" lengthAdjust="spacing" textLength="155" x="1955" y="483.5669">ListingWebSocketHandler</text><text fill="#000000" font-family="sans-serif" font-size="13" lengthAdjust="spacing" textLength="145" x="1955" y="501.2729">OfferWebSocketHandler</text><text fill="#000000" font-family="sans-serif" font-size="13" lengthAdjust="spacing" textLength="153" x="1955" y="518.9789">ProfileWebSocketHandler</text><text fill="#000000" font-family="sans-serif" font-size="13" lengthAdjust="spacing" textLength="143" x="1955" y="536.685">ItemWebSocketHandler</text><text fill="#000000" font-family="sans-serif" font-size="13" lengthAdjust="spacing" textLength="21" x="1955" y="554.391">etc.</text></g><g id="elem_GMN45"><path d="M1927.5,651.6699 L1927.5,705.6699 L1892.81,709.6699 L1927.5,713.6699 L1927.5,767.906 A0,0 0 0 0 1927.5,767.906 L2060.5,767.906 A0,0 0 0 0 2060.5,767.906 L2060.5,661.6699 L2050.5,651.6699 L1927.5,651.6699 A0,0 0 0 0 1927.5,651.6699 " fill="#FEFFDD" style="stroke:#181818;stroke-width:0.5;"/><path d="M2050.5,651.6699 L2050.5,661.6699 L2060.5,661.6699 L2050.5,651.6699 " fill="#FEFFDD" style="stroke:#181818;stroke-width:0.5;"/><text fill="#000000" font-family="sans-serif" font-size="13" lengthAdjust="spacing" textLength="82" x="1933.5" y="670.5669">ListingService</text><text fill="#000000" font-family="sans-serif" font-size="13" lengthAdjust="spacing" textLength="72" x="1933.5" y="688.2729">OfferService</text><text fill="#000000" font-family="sans-serif" font-size="13" lengthAdjust="spacing" textLength="70" x="1933.5" y="705.9789">UserService</text><text fill="#000000" font-family="sans-serif" font-size="13" lengthAdjust="spacing" textLength="70" x="1933.5" y="723.685">ItemService</text><text fill="#000000" font-family="sans-serif" font-size="13" lengthAdjust="spacing" textLength="112" x="1933.5" y="741.391">NotificationService</text><text fill="#000000" font-family="sans-serif" font-size="13" lengthAdjust="spacing" textLength="21" x="1933.5" y="759.097">etc.</text></g><g id="elem_GMN48"><path d="M1883,879.6699 L1883,933.6699 L1848.25,937.6699 L1883,941.6699 L1883,995.906 A0,0 0 0 0 1883,995.906 L2047,995.906 A0,0 0 0 0 2047,995.906 L2047,889.6699 L2037,879.6699 L1883,879.6699 A0,0 0 0 0 1883,879.6699 " fill="#FEFFDD" style="stroke:#181818;stroke-width:0.5;"/><path d="M2037,879.6699 L2037,889.6699 L2047,889.6699 L2037,879.6699 " fill="#FEFFDD" style="stroke:#181818;stroke-width:0.5;"/><text fill="#000000" font-family="sans-serif" font-size="13" lengthAdjust="spacing" textLength="87" x="1889" y="898.5669">ListingMapper</text><text fill="#000000" font-family="sans-serif" font-size="13" lengthAdjust="spacing" textLength="77" x="1889" y="916.2729">OfferMapper</text><text fill="#000000" font-family="sans-serif" font-size="13" lengthAdjust="spacing" textLength="75" x="1889" y="933.9789">UserMapper</text><text fill="#000000" font-family="sans-serif" font-size="13" lengthAdjust="spacing" textLength="75" x="1889" y="951.685">ItemMapper</text><text fill="#000000" font-family="sans-serif" font-size="13" lengthAdjust="spacing" textLength="143" x="1889" y="969.391">CommonListingMapper</text><text fill="#000000" font-family="sans-serif" font-size="13" lengthAdjust="spacing" textLength="21" x="1889" y="987.097">etc.</text></g><g id="elem_GMN51"><path d="M1991,1076.1699 L1991,1121.6699 L1956.04,1125.6699 L1991,1129.6699 L1991,1174.7 A0,0 0 0 0 1991,1174.7 L2087,1174.7 A0,0 0 0 0 2087,1174.7 L2087,1086.1699 L2077,1076.1699 L1991,1076.1699 A0,0 0 0 0 1991,1076.1699 " fill="#FEFFDD" style="stroke:#181818;stroke-width:0.5;"/><path d="M2077,1076.1699 L2077,1086.1699 L2087,1086.1699 L2077,1076.1699 " fill="#FEFFDD" style="stroke:#181818;stroke-width:0.5;"/><text fill="#000000" font-family="sans-serif" font-size="13" lengthAdjust="spacing" textLength="63" x="1997" y="1095.0669">UserEntity</text><text fill="#000000" font-family="sans-serif" font-size="13" lengthAdjust="spacing" textLength="75" x="1997" y="1112.7729">ListingEntity</text><text fill="#000000" font-family="sans-serif" font-size="13" lengthAdjust="spacing" textLength="65" x="1997" y="1130.4789">OfferEntity</text><text fill="#000000" font-family="sans-serif" font-size="13" lengthAdjust="spacing" textLength="63" x="1997" y="1148.185">ItemEntity</text><text fill="#000000" font-family="sans-serif" font-size="13" lengthAdjust="spacing" textLength="21" x="1997" y="1165.891">etc.</text></g><g id="elem_GMN54"><path d="M2227,888.1699 L2227,933.6699 L2191.69,937.6699 L2227,941.6699 L2227,986.7 A0,0 0 0 0 2227,986.7 L2353,986.7 A0,0 0 0 0 2353,986.7 L2353,898.1699 L2343,888.1699 L2227,888.1699 A0,0 0 0 0 2227,888.1699 " fill="#FEFFDD" style="stroke:#181818;stroke-width:0.5;"/><path d="M2343,888.1699 L2343,898.1699 L2353,898.1699 L2343,888.1699 " fill="#FEFFDD" style="stroke:#181818;stroke-width:0.5;"/><text fill="#000000" font-family="sans-serif" font-size="13" lengthAdjust="spacing" textLength="93" x="2233" y="907.0669">UserRepository</text><text fill="#000000" font-family="sans-serif" font-size="13" lengthAdjust="spacing" textLength="105" x="2233" y="924.7729">ListingRepository</text><text fill="#000000" font-family="sans-serif" font-size="13" lengthAdjust="spacing" textLength="95" x="2233" y="942.4789">OfferRepository</text><text fill="#000000" font-family="sans-serif" font-size="13" lengthAdjust="spacing" textLength="93" x="2233" y="960.185">ItemRepository</text><text fill="#000000" font-family="sans-serif" font-size="13" lengthAdjust="spacing" textLength="21" x="2233" y="977.891">etc.</text></g><!--entity WSInterface--><g id="elem_WSInterface"><ellipse cx="679" cy="1125.6699" fill="#E6F3FF" rx="8" ry="8" style="stroke:#4A90E2;stroke-width:2.0;"/><text fill="#000000" font-family="sans-serif" font-size="14" lengthAdjust="spacing" textLength="73" x="626" y="1157.6358">WebSocket</text><text fill="#000000" font-family="sans-serif" font-size="14" lengthAdjust="spacing" textLength="106" x="626" y="1176.7038">Communication</text></g><!--link FXML to Controllers--><g id="link_FXML_Controllers"><path d="M285,157.4599 C285,191.3099 285,249.3099 285,283.0599 " fill="none" id="FXML-to-Controllers" style="stroke:#181818;stroke-width:1.0;"/><polygon fill="#181818" points="285,289.0599,289,280.0599,285,284.0599,281,280.0599,285,289.0599" style="stroke:#181818;stroke-width:1.0;"/><text fill="#000000" font-family="sans-serif" font-size="13" lengthAdjust="spacing" textLength="49" x="286" y="228.5669">binds to</text></g><!--link Controllers to ClientServices--><g id="link_Controllers_ClientServices"><path d="M233.87,328.7899 C192.79,344.3499 137.83,372.6599 112,418.6699 C80.45,474.8599 74.78,511.0599 112,563.6699 C192.09,676.8499 362.1297,701.9593 455.6997,707.2793 " fill="none" id="Controllers-to-ClientServices" style="stroke:#181818;stroke-width:1.0;"/><polygon fill="#181818" points="461.69,707.6199,452.9316,703.1155,456.6981,707.3361,452.4775,711.1026,461.69,707.6199" style="stroke:#181818;stroke-width:1.0;"/><text fill="#000000" font-family="sans-serif" font-size="13" lengthAdjust="spacing" textLength="27" x="113" y="519.5669">uses</text></g><!--link Controllers to ViewModels--><g id="link_Controllers_ViewModels"><path d="M295.26,335.3699 C302.4,351.0199 312.03,372.5199 320,391.6699 C334.33,426.1299 347.6231,461.0182 356.7431,485.4682 " fill="none" id="Controllers-to-ViewModels" style="stroke:#181818;stroke-width:1.0;"/><polygon fill="#181818" points="358.84,491.0899,359.4424,481.2595,357.0926,486.4052,351.9469,484.0554,358.84,491.0899" style="stroke:#181818;stroke-width:1.0;"/><text fill="#000000" font-family="sans-serif" font-size="13" lengthAdjust="spacing" textLength="55" x="327" y="406.5669">manages</text></g><!--link Controllers to NavService--><g id="link_Controllers_NavService"><path d="M310.15,335.2499 C322.54,344.9199 338.19,355.4599 354,361.6699 C445.44,397.5999 485,347.9899 573,391.6699 C618.64,414.3299 652.9025,457.3576 672.3425,485.7776 " fill="none" id="Controllers-to-NavService" style="stroke:#181818;stroke-width:1.0;"/><polygon fill="#181818" points="675.73,490.7299,673.9503,481.0432,672.9071,486.603,667.3473,485.5598,675.73,490.7299" style="stroke:#181818;stroke-width:1.0;"/><text fill="#000000" font-family="sans-serif" font-size="13" lengthAdjust="spacing" textLength="87" x="601" y="406.5669">navigates with</text></g><!--link NavService to Controllers--><g id="link_NavService_Controllers"><path d="M675.79,490.9299 C660.16,468.5399 632.85,435.0499 600,418.6699 C572.37,404.8899 561.3,416.5799 531,410.6699 C450.89,395.0299 427.8,396.5399 354,361.6699 C339.17,354.6599 328.9039,348.118 316.6539,338.898 " fill="none" id="NavService-to-Controllers" style="stroke:#181818;stroke-width:1.0;stroke-dasharray:7.0,7.0;"/><polygon fill="#181818" points="311.86,335.2899,316.6454,343.898,315.8549,338.2967,321.4563,337.5062,311.86,335.2899" style="stroke:#181818;stroke-width:1.0;"/><text fill="#000000" font-family="sans-serif" font-size="13" lengthAdjust="spacing" textLength="32" x="532" y="406.5669">loads</text></g><!--link Controllers to ImgService--><g id="link_Controllers_ImgService"><path d="M267.77,335.2299 C256.9,350.2899 243.54,371.1599 236,391.6699 C223.78,424.8899 220.1435,460.1276 218.8835,485.0076 " fill="none" id="Controllers-to-ImgService" style="stroke:#181818;stroke-width:1.0;"/><polygon fill="#181818" points="218.58,490.9999,223.0301,482.2137,218.8329,486.0063,215.0403,481.8091,218.58,490.9999" style="stroke:#181818;stroke-width:1.0;"/><text fill="#000000" font-family="sans-serif" font-size="13" lengthAdjust="spacing" textLength="78" x="237" y="406.5669">loads images</text></g><!--link ClientServices to WSClient--><g id="link_ClientServices_WSClient"><path d="M519.6,732.7199 C516.76,752.1399 512.88,781.2099 511,806.6699 C508.21,844.4899 507.7807,882.6599 507.8207,908.5599 " fill="none" id="ClientServices-to-WSClient" style="stroke:#181818;stroke-width:1.0;"/><polygon fill="#181818" points="507.83,914.5599,511.8161,905.5537,507.8223,909.5599,503.8161,905.5661,507.83,914.5599" style="stroke:#181818;stroke-width:1.0;"/><text fill="#000000" font-family="sans-serif" font-size="13" lengthAdjust="spacing" textLength="108" x="512" y="821.5669">communicates via</text></g><!--link ClientServices to VMMapper--><g id="link_ClientServices_VMMapper"><path d="M546.3,732.8899 C561.41,746.5799 581.95,763.8999 602,776.6699 C628.5,793.5499 637.88,792.6699 666,806.6699 C682.2,814.7299 684.69,820.4099 702,825.6699 C734.49,835.5499 745.96,822.3899 778,833.6699 C830.04,851.9899 877.6118,886.4582 907.6418,910.8382 " fill="none" id="ClientServices-to-VMMapper" style="stroke:#181818;stroke-width:1.0;"/><polygon fill="#181818" points="912.3,914.6199,907.8339,905.8418,908.4182,911.4684,902.7916,912.0527,912.3,914.6199" style="stroke:#181818;stroke-width:1.0;"/><text fill="#000000" font-family="sans-serif" font-size="13" lengthAdjust="spacing" textLength="82" x="703" y="821.5669">converts data</text></g><!--link Controllers to DTOs--><g id="link_Controllers_DTOs"><path d="M233.83,324.9899 C153.28,346.9699 6,402.3199 6,513.1699 C6,513.1699 6,513.1699 6,938.6699 C6,1108.4899 591.92,1039.2199 758,1074.6699 C808.75,1085.4999 860.6448,1100.5671 896.7248,1111.6571 " fill="none" id="Controllers-to-DTOs" style="stroke:#181818;stroke-width:1.0;stroke-dasharray:7.0,7.0;"/><polygon fill="#181818" points="902.46,1113.4199,895.0324,1106.9522,897.6807,1111.9509,892.682,1114.5991,902.46,1113.4199" style="stroke:#181818;stroke-width:1.0;"/><text fill="#000000" font-family="sans-serif" font-size="13" lengthAdjust="spacing" textLength="83" x="7" y="715.0669">transfers data</text></g><!--link ClientServices to DTOs--><g id="link_ClientServices_DTOs"><path d="M548.03,732.8499 C569.12,751.8599 599.81,780.2799 625,806.6699 C701.39,886.6999 708.71,917.4999 787,995.6699 C827.26,1035.8599 873.6471,1074.114 904.8871,1098.864 " fill="none" id="ClientServices-to-DTOs" style="stroke:#181818;stroke-width:1.0;stroke-dasharray:7.0,7.0;"/><polygon fill="#181818" points="909.59,1102.5899,905.0195,1093.8657,905.6709,1099.485,900.0517,1100.1363,909.59,1102.5899" style="stroke:#181818;stroke-width:1.0;"/><text fill="#000000" font-family="sans-serif" font-size="13" lengthAdjust="spacing" textLength="59" x="788" y="943.0669">processes</text></g><!--link ViewModels to Enums--><g id="link_ViewModels_Enums"><path d="M394.27,537.2799 C406.93,546.5999 422.57,556.8499 438,563.6699 C576.71,625.0299 634.67,574.1799 770,642.6699 C852.15,684.2499 848.42,730.3599 928,776.6699 C961.54,796.1899 979.5,782.6699 1010,806.6699 C1045.93,834.9499 1065.8558,879.891 1076.0858,908.921 " fill="none" id="ViewModels-to-Enums" style="stroke:#181818;stroke-width:1.0;stroke-dasharray:7.0,7.0;"/><polygon fill="#181818" points="1078.08,914.5799,1078.8614,904.7621,1076.4182,909.8641,1071.3161,907.421,1078.08,914.5799" style="stroke:#181818;stroke-width:1.0;"/><text fill="#000000" font-family="sans-serif" font-size="13" lengthAdjust="spacing" textLength="63" x="929" y="715.0669">uses types</text></g><!--link ClientServices to Messages--><g id="link_ClientServices_Messages"><path d="M542.39,732.8699 C557.09,748.0499 578.69,767.0999 602,776.6699 C742.89,834.5199 1154.53,755.0899 1285,833.6699 C1315.38,851.9699 1332.0475,884.6331 1341.4675,909.0131 " fill="none" id="ClientServices-to-Messages" style="stroke:#181818;stroke-width:1.0;stroke-dasharray:7.0,7.0;"/><polygon fill="#181818" points="1343.63,914.6099,1344.1174,904.7731,1341.8279,909.9459,1336.6551,907.6564,1343.63,914.6099" style="stroke:#181818;stroke-width:1.0;"/><text fill="#000000" font-family="sans-serif" font-size="13" lengthAdjust="spacing" textLength="88" x="1269" y="821.5669">sends/receives</text></g><!--link VMMapper to DTOs--><g id="link_VMMapper_DTOs"><path d="M938,960.7399 C938,996.5299 938,1060.8499 938,1096.6299 " fill="none" id="VMMapper-to-DTOs" style="stroke:#181818;stroke-width:1.0;"/><polygon fill="#181818" points="938,1102.6299,942,1093.6299,938,1097.6299,934,1093.6299,938,1102.6299" style="stroke:#181818;stroke-width:1.0;"/><text fill="#000000" font-family="sans-serif" font-size="13" lengthAdjust="spacing" textLength="84" x="939" y="1040.5669">converts from</text></g><!--link VMMapper to ViewModels--><g id="link_VMMapper_ViewModels"><path d="M952.58,914.4399 C968.75,891.3399 996.86,855.5699 1029,833.6699 C1037.6,827.8099 1045.03,834.1899 1051,825.6699 C1099.37,756.6099 1057.35,705.3899 1001,642.6699 C963.87,601.3399 940.03,606.5999 886,593.6699 C691.92,547.2399 626.59,628.9199 438,563.6699 C421.35,557.9099 409.7167,550.83 396.8867,540.91 " fill="none" id="VMMapper-to-ViewModels" style="stroke:#181818;stroke-width:1.0;"/><polygon fill="#181818" points="392.14,537.2399,396.8133,545.9094,396.0955,540.2983,401.7067,539.5805,392.14,537.2399" style="stroke:#181818;stroke-width:1.0;"/><text fill="#000000" font-family="sans-serif" font-size="13" lengthAdjust="spacing" textLength="68" x="1073" y="715.0669">converts to</text></g><!--link WSClient to WSInterface--><g id="link_WSClient_WSInterface"><path d="M521.67,960.9899 C535.86,983.3199 559.4,1018.0699 584,1044.6699 C612.4,1075.3799 647.4593,1101.9723 665.1193,1114.7523 " fill="none" id="WSClient-to-WSInterface" style="stroke:#181818;stroke-width:1.0;"/><polygon fill="#181818" points="669.98,1118.2699,665.0339,1109.7531,665.9294,1115.3386,660.3439,1116.234,669.98,1118.2699" style="stroke:#181818;stroke-width:1.0;"/><text fill="#000000" font-family="sans-serif" font-size="13" lengthAdjust="spacing" textLength="35" x="585" y="1040.5669">sends</text></g><!--link WSInterface to WSHandlers--><g id="link_WSInterface_WSHandlers"><path d="M688.28,1117.0499 C709.99,1098.6799 764.16,1049.4699 790,995.6699 C859.09,851.7899 740.05,752.3599 856,642.6699 C921.36,580.8399 1531.5132,535.1374 1752.0132,520.4974 " fill="none" id="WSInterface-to-WSHandlers" style="stroke:#181818;stroke-width:1.0;"/><polygon fill="#181818" points="1758,520.0999,1748.7548,516.7049,1753.011,520.4311,1749.2848,524.6873,1758,520.0999" style="stroke:#181818;stroke-width:1.0;"/><text fill="#000000" font-family="sans-serif" font-size="13" lengthAdjust="spacing" textLength="48" x="808" y="821.5669">receives</text></g><!--link WSHandlers to ServerServices--><g id="link_WSHandlers_ServerServices"><path d="M1835.2,537.3699 C1833.85,574.5899 1831.3673,643.1838 1830.0173,680.4338 " fill="none" id="WSHandlers-to-ServerServices" style="stroke:#181818;stroke-width:1.0;"/><polygon fill="#181818" points="1829.8,686.4299,1834.1233,677.5807,1829.9811,681.4332,1826.1286,677.2909,1829.8,686.4299" style="stroke:#181818;stroke-width:1.0;"/><text fill="#000000" font-family="sans-serif" font-size="13" lengthAdjust="spacing" textLength="74" x="1834" y="608.5669">delegates to</text></g><!--link ServerServices to Mappers--><g id="link_ServerServices_Mappers"><path d="M1826.46,732.7499 C1821.49,775.9599 1811.2159,865.2592 1806.2359,908.5392 " fill="none" id="ServerServices-to-Mappers" style="stroke:#181818;stroke-width:1.0;"/><polygon fill="#181818" points="1805.55,914.4999,1810.5526,906.0161,1806.1216,909.5327,1802.605,905.1017,1805.55,914.4999" style="stroke:#181818;stroke-width:1.0;"/><text fill="#000000" font-family="sans-serif" font-size="13" lengthAdjust="spacing" textLength="81" x="1818" y="821.5669">converts with</text></g><!--link ServerServices to Repositories--><g id="link_ServerServices_Repositories"><path d="M1851.92,732.8399 C1867.36,746.8499 1888.72,764.5399 1910,776.6699 C1973.77,813.0199 2006.86,788.8699 2065,833.6699 C2093.17,855.3799 2111.9197,885.8622 2123.8097,909.0222 " fill="none" id="ServerServices-to-Repositories" style="stroke:#181818;stroke-width:1.0;"/><polygon fill="#181818" points="2126.55,914.3599,2125.998,904.5265,2124.2664,909.9118,2118.8811,908.1802,2126.55,914.3599" style="stroke:#181818;stroke-width:1.0;"/><text fill="#000000" font-family="sans-serif" font-size="13" lengthAdjust="spacing" textLength="66" x="2052" y="821.5669">persists via</text></g><!--link Mappers to Entities--><g id="link_Mappers_Entities"><path d="M1821.5,960.8899 C1835.03,977.8699 1853.19,1002.2799 1866,1025.6699 C1879.75,1050.7799 1889.2526,1076.0878 1896.1026,1096.6378 " fill="none" id="Mappers-to-Entities" style="stroke:#181818;stroke-width:1.0;"/><polygon fill="#181818" points="1898,1102.3299,1898.9487,1092.5268,1896.4189,1097.5865,1891.3592,1095.0567,1898,1102.3299" style="stroke:#181818;stroke-width:1.0;"/><text fill="#000000" font-family="sans-serif" font-size="13" lengthAdjust="spacing" textLength="65" x="1876" y="1040.5669">maps from</text></g><!--link Mappers to DTOs--><g id="link_Mappers_DTOs"><path d="M1780.89,960.7499 C1767.53,972.8599 1749.53,987.1099 1731,995.6699 C1629.4,1042.5999 1595,1030.3499 1484,1044.6699 C1375.14,1058.7099 1091.73,1031.0699 991,1074.6699 C977.07,1080.6999 968.5681,1087.604 959.2081,1097.984 " fill="none" id="Mappers-to-DTOs" style="stroke:#181818;stroke-width:1.0;"/><polygon fill="#181818" points="955.19,1102.4399,964.1877,1098.4347,958.5384,1098.7266,958.2465,1093.0773,955.19,1102.4399" style="stroke:#181818;stroke-width:1.0;"/><text fill="#000000" font-family="sans-serif" font-size="13" lengthAdjust="spacing" textLength="49" x="1646" y="1040.5669">maps to</text></g><!--link Repositories to Entities--><g id="link_Repositories_Entities"><path d="M2109.48,960.7399 C2064.83,996.5299 1981.8013,1063.0969 1937.1713,1098.8769 " fill="none" id="Repositories-to-Entities" style="stroke:#181818;stroke-width:1.0;"/><polygon fill="#181818" points="1932.49,1102.6299,1942.014,1100.1212,1936.3911,1099.5024,1937.01,1093.8795,1932.49,1102.6299" style="stroke:#181818;stroke-width:1.0;"/><text fill="#000000" font-family="sans-serif" font-size="13" lengthAdjust="spacing" textLength="55" x="2028" y="1040.5669">manages</text></g><!--link WSHandlers to Messages--><g id="link_WSHandlers_Messages"><path d="M1798.65,537.2299 C1720.93,584.3899 1538.93,701.5599 1417,833.6699 C1393.95,858.6399 1376.7624,887.3405 1364.9924,909.3205 " fill="none" id="WSHandlers-to-Messages" style="stroke:#181818;stroke-width:1.0;stroke-dasharray:7.0,7.0;"/><polygon fill="#181818" points="1362.16,914.6099,1369.9348,908.5641,1364.5203,910.2021,1362.8823,904.7876,1362.16,914.6099" style="stroke:#181818;stroke-width:1.0;"/><text fill="#000000" font-family="sans-serif" font-size="13" lengthAdjust="spacing" textLength="47" x="1640" y="715.0669">handles</text></g><!--link ServerServices to DTOs--><g id="link_ServerServices_DTOs"><path d="M1793.63,732.7699 C1760.59,754.9099 1711.74,791.6499 1680,833.6699 C1632.62,896.3999 1671.94,948.5699 1609,995.6699 C1387.3,1161.5799 1241.33,956.2999 991,1074.6699 C977.39,1081.1099 969.0392,1087.9415 959.6592,1098.1515 " fill="none" id="ServerServices-to-DTOs" style="stroke:#181818;stroke-width:1.0;stroke-dasharray:7.0,7.0;"/><polygon fill="#181818" points="955.6,1102.5699,964.6345,1098.6484,958.9827,1098.8879,958.7432,1093.2361,955.6,1102.5699" style="stroke:#181818;stroke-width:1.0;"/><text fill="#000000" font-family="sans-serif" font-size="13" lengthAdjust="spacing" textLength="59" x="1681" y="943.0669">processes</text></g><!--link Entities to Enums--><g id="link_Entities_Enums"><path d="M1853.83,1116.0399 C1683,1087.2499 1143,996.1899 1142,995.6699 C1125.96,987.3899 1115.4673,977.5757 1105.1773,965.3157 " fill="none" id="Entities-to-Enums" style="stroke:#181818;stroke-width:1.0;stroke-dasharray:7.0,7.0;"/><polygon fill="#181818" points="1101.32,960.7199,1104.0421,970.1851,1104.5344,964.5497,1110.1698,965.042,1101.32,960.7199" style="stroke:#181818;stroke-width:1.0;"/><text fill="#000000" font-family="sans-serif" font-size="13" lengthAdjust="spacing" textLength="63" x="1412" y="1040.5669">uses types</text></g><!--link ImgService to ClientServices--><g id="link_ImgService_ClientServices"><path d="M252.69,537.1799 C311.24,574.3199 423.9636,645.8356 482.8036,683.1656 " fill="none" id="ImgService-to-ClientServices" style="stroke:#181818;stroke-width:1.0;stroke-dasharray:7.0,7.0;"/><polygon fill="#181818" points="487.87,686.3799,482.4133,678.1809,483.648,683.7013,478.1275,684.9361,487.87,686.3799" style="stroke:#181818;stroke-width:1.0;"/><text fill="#000000" font-family="sans-serif" font-size="13" lengthAdjust="spacing" textLength="38" x="371" y="608.5669">serves</text></g><rect fill="#DDDDDD" height="189.6113" id="_legend" rx="7.5" ry="7.5" style="stroke:#000000;stroke-width:1.0;" width="248" x="12" y="1209.1699"/><text fill="#000000" font-family="sans-serif" font-size="14" lengthAdjust="spacing" textLength="35" x="17" y="1231.1358">Color</text><text fill="#000000" font-family="sans-serif" font-size="14" lengthAdjust="spacing" textLength="52" x="78" y="1231.1358">Domain</text><text fill="#000000" font-family="sans-serif" font-size="14" lengthAdjust="spacing" textLength="57" x="17" y="1250.2038">#E8F4FD</text><text fill="#000000" font-family="sans-serif" font-size="14" lengthAdjust="spacing" textLength="95" x="82" y="1250.2038">Client Domain</text><text fill="#000000" font-family="sans-serif" font-size="14" lengthAdjust="spacing" textLength="53" x="17" y="1269.2717">#F0F8FF</text><text fill="#000000" font-family="sans-serif" font-size="14" lengthAdjust="spacing" textLength="88" x="82" y="1269.2717">Shared Layer</text><text fill="#000000" font-family="sans-serif" font-size="14" lengthAdjust="spacing" textLength="54" x="17" y="1288.3396">#FFF2E8</text><text fill="#000000" font-family="sans-serif" font-size="14" lengthAdjust="spacing" textLength="99" x="82" y="1288.3396">Server Domain</text><text fill="#000000" font-family="sans-serif" font-size="14" lengthAdjust="spacing" textLength="54" x="17" y="1307.4075">#E6F3FF</text><text fill="#000000" font-family="sans-serif" font-size="14" lengthAdjust="spacing" textLength="68" x="82" y="1307.4075">Interfaces</text><line style="stroke:#000000;stroke-width:1.0;" x1="17" x2="185" y1="1216.1699" y2="1216.1699"/><line style="stroke:#000000;stroke-width:1.0;" x1="17" x2="185" y1="1235.2378" y2="1235.2378"/><line style="stroke:#000000;stroke-width:1.0;" x1="17" x2="185" y1="1254.3057" y2="1254.3057"/><line style="stroke:#000000;stroke-width:1.0;" x1="17" x2="185" y1="1273.3736" y2="1273.3736"/><line style="stroke:#000000;stroke-width:1.0;" x1="17" x2="185" y1="1292.4416" y2="1292.4416"/><line style="stroke:#000000;stroke-width:1.0;" x1="17" x2="185" y1="1311.5095" y2="1311.5095"/><line style="stroke:#000000;stroke-width:1.0;" x1="17" x2="17" y1="1216.1699" y2="1311.5095"/><line style="stroke:#000000;stroke-width:1.0;" x1="78" x2="78" y1="1216.1699" y2="1311.5095"/><line style="stroke:#000000;stroke-width:1.0;" x1="185" x2="185" y1="1216.1699" y2="1311.5095"/><text fill="#000000" font-family="sans-serif" font-size="14" lengthAdjust="spacing" textLength="4" x="17" y="1328.4754">&#160;</text><text fill="#000000" font-family="sans-serif" font-size="14" lengthAdjust="spacing" textLength="64" x="17" y="1349.5433">Line Type</text><text fill="#000000" font-family="sans-serif" font-size="14" lengthAdjust="spacing" textLength="84" x="119" y="1349.5433">Relationship</text><text fill="#000000" font-family="sans-serif" font-size="14" lengthAdjust="spacing" textLength="98" x="17" y="1368.6113">&#8212;&#8212;&#8212;&#8212;&#8212;&#8212;&#8212;</text><text fill="#000000" font-family="sans-serif" font-size="14" lengthAdjust="spacing" textLength="128" x="123" y="1368.6113">Direct Dependency</text><text fill="#000000" font-family="sans-serif" font-size="14" lengthAdjust="spacing" textLength="40" x="17" y="1387.6792">&#183;&#183;&#183;&#183;&#183;&#183;&#183;&#183;&#183;&#183;</text><text fill="#000000" font-family="sans-serif" font-size="14" lengthAdjust="spacing" textLength="77" x="123" y="1387.6792">Data Usage</text><line style="stroke:#000000;stroke-width:1.0;" x1="17" x2="255" y1="1334.5774" y2="1334.5774"/><line style="stroke:#000000;stroke-width:1.0;" x1="17" x2="255" y1="1353.6453" y2="1353.6453"/><line style="stroke:#000000;stroke-width:1.0;" x1="17" x2="255" y1="1372.7132" y2="1372.7132"/><line style="stroke:#000000;stroke-width:1.0;" x1="17" x2="255" y1="1391.7812" y2="1391.7812"/><line style="stroke:#000000;stroke-width:1.0;" x1="17" x2="17" y1="1334.5774" y2="1391.7812"/><line style="stroke:#000000;stroke-width:1.0;" x1="119" x2="119" y1="1334.5774" y2="1391.7812"/><line style="stroke:#000000;stroke-width:1.0;" x1="255" x2="255" y1="1334.5774" y2="1391.7812"/><!--SRC=[fLZDRkCs4BxhARZkeQUakzd58krX0TUsi2wSP64dcnPjKJ0oRHEHI86YatNh0ds8lallVPG-IMVu8r6Kr4rG9J3CRpvoXiEFGyelrcp31IEJnNnsUVtBv6fnjIHVpCxJD-aqUU6CgzdouspfZMcQditE6-FxyN8shOqlq_CqhOtpo-lPCXrFPlN8RzFNO4yqrpaZDu8Bkdga9JaX4rcKKZ2XoLXbEwvPflUAaIcdMqMB9AdkkIWfV2LPpVmj8V1yIxFxhP9xiPx8N2eJ8JpM9jMQAOU_Da-0N-zuTYzOLP4pWwPIw1N_bP5NPydleKikD5CRch4XbsvU7PTlnb-_d9qDk6ovA658kXroe1KL5H1XrbqdRytJw-HLCozzW8pVoNoDVhstaLruChsw6CylHuHMP99py3AL1UN2Iy55PJv-JB-_M92Fd3rMFoCVczOm0JTAvZbJrXAq7S4CJLPCFV2CEPB1F6HvEFY5NBFSKfgcDT-okvNCxfbsdGtfTcKRbd997_YMQYw5zsP80BkcfSqBJ4B8c1VRa64-XDICABxTQI8tpNpn-Q3aXkSC8ppTV2hosd2rsS2qk_Y2LvgBxPHfolCU-rop0ZIVostNndHsQXfCh4rGGo76YGyYRKnHg3s6TgmzX2RO7kFJe-qg8F0UhaOTRGnY835sAJNVyCo88BQvPCHmIX-aWj9JnOOLer2KGlHpaueqYyzDnLGDnzFi6in4kp1EjOjsanrkSbkZoMBymsnfzlXg1wLalQ07fdn1RstnwVMLtNhunK8piIyiPhvPy09g37Ymk6z4U_Y2bYLJTYDVsCPGqcflFbq0TDGOG2P58M046RIVhC5cJg7qDDNxAb9U6vli5TJaxD00LBEjL8TMIB0xrXnr-Fp0MaaDf7jJhi6JiyQ1nx29F0O_8nbpveVd0geViktE1NlGjqJJbENtLAphK-1svPkMPiTf7m8MQny2LYfEMlQxDNptOGph1JS8phmWRSEQbwoK5TUmaPqv18RI70KPvBAUbIEqapfeTSiqQ4TP31gVh8wUl3stTE8s-x_bzEbg3jOnr6jJ5HgvjZ4CCu8moWY2IsGXHV-epwW5WPoyRmCUui0Zr0GUOHXb13qvaevoVJIreHDHZyL4rODZP3rmRrtuaWINBaZoNZWfaBc_6YVD9NbKatyIBVR85eIc3mpiBeMki1YJe3dCFJTTgXqlgyJSEKzEteLN6_8D6TrniQw8bgCaD1XYwrQ1t7t5gYwlEQYHKr21rRPBQswEI1FsUWdZFdAzwxARMoIoSqaXI5wuaTk18TtVNP6SrVa2umEdlHtyGMex2AW1kY9m800RCcfFTsAFznjJzCC0Jq_VcPCMEvlt2hp-kTwHhv1QAWcGoM6GCsIOmzDdcEX3sJDDvFcp3AaLgAlwIh6CyGSpf9yHJi-xhAUsKRA8EErrgvaeXM6r9dMcRTfh8TOXZP8GjIn_D22fYHWJRO-o_vPkq1-7QvTi71BcmAoOCFZ8ZbrSrMpDq-gkXnpM3BDiq1DAWzEI7mgPlivPtPS-oo75BuGnOtIjqRk3kCs3krh9gZfncPc2jaYQoySm6R4YTiPGTIOreC7QyQ028OhnsjwxO57yVfoo4jOPxcnOKuDTZSD4nSNisr4IR6P3wXIM2WD6Xx2EM3JlfDQo83dRsBVHetrFFxfi72teNwsFKGNqPdV3EhQtSssrb_PZfC5wRFDx19XhBLVEPWaB_7Nc6l94Zg5QVVz__lYp-m-ZJJdeNpSvFFWEV__L_KC-BhofG41akBwOeEHV]--></g></svg>