<?xml version="1.0" encoding="utf-8" ?><svg xmlns="http://www.w3.org/2000/svg" xmlns:xlink="http://www.w3.org/1999/xlink" width="480" height="480" viewBox="0 0 480 480"><path fill="#052543" d="M125.734 183.813C119.902 180.475 113.288 177.911 107.155 175.156L65.2606 156.47C58.3105 153.395 49.9725 150.263 43.4552 146.703C41.9233 145.867 40.2743 144.984 39.363 143.43C38.7571 142.397 38.5088 141.142 38.8461 139.976C39.4262 137.971 41.3355 136.626 43.0987 135.713C47.9435 133.204 53.2966 131.261 58.3218 129.121L83.1629 118.342L164.065 83.3059C179.822 76.5479 195.539 69.6989 211.216 62.7591C214.896 61.1538 218.558 59.5088 222.201 57.8244C225.762 56.1672 229.33 54.2933 233.102 53.1755C238.148 51.6805 243.888 52.114 248.851 53.7325C253.245 55.1651 257.498 57.2227 261.735 59.0603L282.396 68.0556L338.633 92.1249L403.601 120.082L424.538 128.998C429.091 130.927 433.76 132.753 438.172 134.984C440.137 135.977 442.74 137.705 443.676 139.754C444.155 140.803 444.094 142.137 443.659 143.19C443.167 144.381 442.241 145.187 441.205 145.907C437.471 148.5 432.74 150.312 428.587 152.196C424.124 154.22 419.624 156.391 415.044 158.123C410.879 160.265 405.86 161.626 402.037 164.309C401.776 168.662 401.898 173.056 401.897 177.416L401.878 197.88C401.872 201.213 402.48 205.495 401.725 208.716C403.25 209.011 404.73 209.585 406.002 210.485C408.307 212.116 409.638 214.533 410.065 217.297C410.867 222.499 408.629 225.919 405.719 229.968C406.117 232.74 407.11 235.579 407.859 238.276C410.026 246.074 415.635 263.486 414.641 271.279C414.38 273.33 413.649 275.467 411.9 276.715C410.812 277.491 409.418 277.83 408.112 277.996C404.349 278.476 400.399 278.143 396.614 278.135C392.665 278.128 388.345 278.635 384.464 277.858C382.439 277.453 380.43 276.605 379.3 274.79C374.514 267.096 382.401 236.968 384.512 227.856C384.463 227.81 384.415 227.766 384.367 227.72C382.26 225.695 380.686 223.019 380.672 220.032C380.646 214.696 384.348 212.364 387.738 209.082C388.091 201.37 387.669 193.535 387.704 185.807C387.718 182.61 388.199 173.369 387.718 170.894C386.137 170.691 361.829 182.684 357.465 183.966C357.375 183.992 357.284 184.016 357.193 184.042C352.54 180.468 347.846 176.995 342.815 173.968C317.305 158.625 286.633 151.543 257.106 149.971C219.41 147.964 171.69 152.043 139.25 172.914C134.326 176.082 130.072 179.917 125.734 183.813Z"/><path fill="#000001" d="M401.084 164.013C404.384 160.667 410.555 159.052 415.044 158.123C410.879 160.265 405.86 161.626 402.037 164.309C401.776 168.662 401.898 173.056 401.897 177.416L401.878 197.88C401.872 201.213 402.48 205.495 401.725 208.716L401.232 208.505C400.467 206.697 400.676 168.236 401.084 164.013Z"/><path fill="#052543" d="M139.486 256.207C139.76 256.061 140.034 255.921 140.321 255.802C142.671 254.827 193.653 255.11 199.302 255.379C200.505 255.436 201.65 255.484 202.77 255.978C202.808 256.039 202.849 256.098 202.886 256.159C204.542 258.841 203.774 271.2 203.76 274.821L203.703 331.414C203.698 343.076 203.17 355.145 204.263 366.751C204.711 371.505 205.494 376.204 207.303 380.65C211.169 390.361 219.508 397.593 229.669 400.044C240.144 402.682 253.378 401.595 262.684 395.949C270.375 391.283 275.119 383.912 277.178 375.264C279.402 365.926 278.543 349.463 278.541 339.47L278.501 285.808L278.505 268.831C278.506 265.667 278.348 262.437 278.581 259.284C278.665 258.145 278.862 257.14 279.484 256.169C279.812 255.96 280.129 255.774 280.501 255.652C282.961 254.839 332.883 255.069 338.889 255.421C339.949 255.483 340.839 255.567 341.81 256.046C342.641 256.464 343.017 256.769 343.332 257.665C344.299 260.421 343.768 295.129 343.768 299.986L343.806 342.696C343.818 351.514 343.958 360.361 343.718 369.175C343.605 373.284 343.317 377.448 342.749 381.519C341.295 391.353 338.157 400.863 333.471 409.63C321.861 431.611 301.421 446.285 277.938 453.467C276.444 453.924 274.424 454.717 272.862 454.71L272.548 454.729C264.017 455.298 255.799 457.531 247.16 457.697C240.65 457.823 234.038 457.613 227.537 457.275C224.496 457.116 220.903 456.425 217.927 456.728C215.203 456.715 211.82 455.636 209.166 454.951C194.467 451.16 180.98 444.686 169.319 434.912C151.338 419.84 140.716 398.072 138.689 374.867C137.926 369.796 138.233 364.282 138.238 359.156L138.266 335.045L138.273 282.879C138.284 275.428 138.106 267.937 138.272 260.492C138.296 259.405 138.329 258.369 138.671 257.326C138.914 256.94 139.215 256.575 139.486 256.207Z"/><path fill="#000001" d="M138.671 257.326C139.927 270.195 139.222 283.411 139.254 296.344L138.689 374.867C137.926 369.796 138.233 364.282 138.238 359.156L138.266 335.045L138.273 282.879C138.284 275.428 138.106 267.937 138.272 260.492C138.296 259.405 138.329 258.369 138.671 257.326Z"/><path fill="#000001" d="M139.486 256.207C139.76 256.061 140.034 255.921 140.321 255.802C142.671 254.827 193.653 255.11 199.302 255.379C200.505 255.436 201.65 255.484 202.77 255.978C191.923 256.515 181.01 256.244 170.149 256.251C159.96 256.257 149.664 256.555 139.486 256.207Z"/><path fill="#000001" d="M279.484 256.169C279.812 255.96 280.129 255.774 280.501 255.652C282.961 254.839 332.883 255.069 338.889 255.421C339.949 255.483 340.839 255.567 341.81 256.046C328.129 256.465 314.433 256.214 300.748 256.157C293.736 256.127 286.463 256.616 279.484 256.169Z"/><path fill="#052543" d="M229.638 163.358C233.765 163.068 238.055 163.282 242.194 163.286C273.019 163.316 306.834 168.423 334.015 183.638C337.021 185.321 340.285 187.007 343.02 189.108C344.244 190.048 344.772 190.652 344.959 192.199C345.327 195.244 345.001 198.577 344.923 201.638C344.742 208.578 344.488 215.516 344.162 222.45C343.982 226.665 344.213 231.085 343.771 235.26C343.669 236.217 343.503 237.411 342.825 238.146C342.003 239.037 332.074 235.119 330.493 234.59C305.659 226.493 279.797 221.978 253.688 221.18C225.052 219.931 196.386 222.768 168.551 229.606C162.471 231.105 156.346 232.898 150.398 234.872C147.361 235.88 144.077 237.672 140.941 238.182C140.477 238.258 139.908 238.293 139.544 237.954C138.841 237.298 138.697 236.184 138.62 235.273C138.402 232.707 138.668 230.059 138.731 227.486C138.83 223.448 138.838 219.404 138.876 215.365L138.962 199.958C138.967 196.971 138.812 193.889 139.068 190.916C139.166 189.785 139.286 188.582 140.087 187.713C142.784 184.788 147.67 182.589 151.233 180.787C175.697 168.415 202.631 164.802 229.638 163.358Z"/><path fill="#000001" d="M217.927 456.728C220.903 456.425 224.496 457.116 227.537 457.275C234.038 457.613 240.65 457.823 247.16 457.697C255.799 457.531 264.017 455.298 272.548 454.729L272.862 454.71C259.029 459.281 232.106 460.104 217.927 456.728Z"/></svg>